<mxfile host="app.diagrams.net" modified="2023-07-23T16:10:57.999Z" agent="Mozilla/5.0 (Windows NT 10.0; Win64; x64) AppleWebKit/537.36 (KHTML, like Gecko) Chrome/115.0.0.0 Safari/537.36" etag="S81yvCX4D3Q_F2ldjLE8" version="21.6.1" type="github">
  <diagram name="Page-1" id="c4acf3e9-155e-7222-9cf6-157b1a14988f">
    <mxGraphModel dx="2915" dy="2255" grid="1" gridSize="10" guides="1" tooltips="1" connect="1" arrows="1" fold="1" page="1" pageScale="1" pageWidth="850" pageHeight="1100" background="none" math="0" shadow="0">
      <root>
        <mxCell id="0" />
        <mxCell id="1" parent="0" />
        <mxCell id="C4nNwsREx9SmPKyc8qz5-2" value="&lt;p style=&quot;margin:0px;margin-top:6px;text-align:center;&quot;&gt;&lt;b&gt;menu.py&lt;/b&gt;&lt;/p&gt;&lt;hr&gt;&lt;p style=&quot;margin:0px;margin-left:8px;&quot;&gt;+ MENU_MAPING&lt;/p&gt;&lt;p style=&quot;margin:0px;margin-left:8px;&quot;&gt;+END_COMMANDS&lt;/p&gt;&lt;p style=&quot;margin:0px;margin-left:8px;&quot;&gt;+main()&lt;/p&gt;&lt;p style=&quot;margin:0px;margin-left:8px;&quot;&gt;+print_menu()&lt;/p&gt;&lt;p style=&quot;margin:0px;margin-left:8px;&quot;&gt;+exit_bot()&lt;/p&gt;&lt;p style=&quot;margin:0px;margin-left:8px;&quot;&gt;&lt;br&gt;&lt;/p&gt;" style="align=left;overflow=fill;html=1;dropTarget=0;whiteSpace=wrap;fillColor=#d5e8d4;strokeColor=#82b366;" vertex="1" parent="1">
          <mxGeometry x="250" width="180" height="110" as="geometry" />
        </mxCell>
        <mxCell id="C4nNwsREx9SmPKyc8qz5-3" value="" style="shape=component;jettyWidth=8;jettyHeight=4;" vertex="1" parent="C4nNwsREx9SmPKyc8qz5-2">
          <mxGeometry x="1" width="20" height="20" relative="1" as="geometry">
            <mxPoint x="-24" y="4" as="offset" />
          </mxGeometry>
        </mxCell>
        <mxCell id="C4nNwsREx9SmPKyc8qz5-70" style="edgeStyle=orthogonalEdgeStyle;rounded=0;orthogonalLoop=1;jettySize=auto;html=1;entryX=0.25;entryY=0;entryDx=0;entryDy=0;" edge="1" parent="1" source="C4nNwsREx9SmPKyc8qz5-60" target="C4nNwsREx9SmPKyc8qz5-65">
          <mxGeometry relative="1" as="geometry" />
        </mxCell>
        <mxCell id="C4nNwsREx9SmPKyc8qz5-86" style="edgeStyle=orthogonalEdgeStyle;rounded=0;orthogonalLoop=1;jettySize=auto;html=1;entryX=0;entryY=0.25;entryDx=0;entryDy=0;exitX=0.525;exitY=0.141;exitDx=0;exitDy=0;exitPerimeter=0;" edge="1" parent="1" source="C4nNwsREx9SmPKyc8qz5-60" target="C4nNwsREx9SmPKyc8qz5-2">
          <mxGeometry relative="1" as="geometry">
            <Array as="points">
              <mxPoint x="-140" y="153" />
              <mxPoint x="-140" y="27" />
            </Array>
          </mxGeometry>
        </mxCell>
        <mxCell id="C4nNwsREx9SmPKyc8qz5-60" value="__init__.py&lt;br&gt;addressbook_class.py&lt;br&gt;addressbook_main.py" style="shape=folder;fontStyle=1;spacingTop=10;tabWidth=40;tabHeight=14;tabPosition=left;html=1;whiteSpace=wrap;fillColor=#d5e8d4;strokeColor=#82b366;" vertex="1" parent="1">
          <mxGeometry x="-210" y="140" width="140" height="90" as="geometry" />
        </mxCell>
        <mxCell id="C4nNwsREx9SmPKyc8qz5-82" style="edgeStyle=orthogonalEdgeStyle;rounded=0;orthogonalLoop=1;jettySize=auto;html=1;entryX=1;entryY=0.5;entryDx=0;entryDy=0;exitX=0.525;exitY=0.158;exitDx=0;exitDy=0;exitPerimeter=0;" edge="1" parent="1" source="C4nNwsREx9SmPKyc8qz5-61" target="C4nNwsREx9SmPKyc8qz5-2">
          <mxGeometry relative="1" as="geometry">
            <Array as="points">
              <mxPoint x="960" y="154" />
              <mxPoint x="960" y="55" />
            </Array>
          </mxGeometry>
        </mxCell>
        <mxCell id="C4nNwsREx9SmPKyc8qz5-61" value="__init__.py&lt;br&gt;command_completer.py&lt;br&gt;error_handlers.py&lt;br&gt;parsers.py" style="shape=folder;fontStyle=1;spacingTop=10;tabWidth=40;tabHeight=14;tabPosition=left;html=1;whiteSpace=wrap;fillColor=#d5e8d4;strokeColor=#82b366;" vertex="1" parent="1">
          <mxGeometry x="890" y="140" width="140" height="90" as="geometry" />
        </mxCell>
        <mxCell id="C4nNwsREx9SmPKyc8qz5-83" style="edgeStyle=orthogonalEdgeStyle;rounded=0;orthogonalLoop=1;jettySize=auto;html=1;entryX=1;entryY=0.75;entryDx=0;entryDy=0;exitX=0.497;exitY=0.141;exitDx=0;exitDy=0;exitPerimeter=0;" edge="1" parent="1" source="C4nNwsREx9SmPKyc8qz5-62" target="C4nNwsREx9SmPKyc8qz5-2">
          <mxGeometry relative="1" as="geometry">
            <Array as="points">
              <mxPoint x="670" y="83" />
            </Array>
          </mxGeometry>
        </mxCell>
        <mxCell id="C4nNwsREx9SmPKyc8qz5-62" value="__init__.py&lt;br&gt;gpt_app.py" style="shape=folder;fontStyle=1;spacingTop=10;tabWidth=40;tabHeight=14;tabPosition=left;html=1;whiteSpace=wrap;fillColor=#d5e8d4;strokeColor=#82b366;" vertex="1" parent="1">
          <mxGeometry x="600" y="140" width="140" height="90" as="geometry" />
        </mxCell>
        <mxCell id="C4nNwsREx9SmPKyc8qz5-85" style="edgeStyle=orthogonalEdgeStyle;rounded=0;orthogonalLoop=1;jettySize=auto;html=1;entryX=-0.002;entryY=0.381;entryDx=0;entryDy=0;entryPerimeter=0;exitX=0.42;exitY=0.175;exitDx=0;exitDy=0;exitPerimeter=0;" edge="1" parent="1" source="C4nNwsREx9SmPKyc8qz5-63" target="C4nNwsREx9SmPKyc8qz5-2">
          <mxGeometry relative="1" as="geometry">
            <Array as="points">
              <mxPoint x="100" y="42" />
            </Array>
          </mxGeometry>
        </mxCell>
        <mxCell id="C4nNwsREx9SmPKyc8qz5-63" value="__init__.py&lt;br&gt;sorter.py" style="shape=folder;fontStyle=1;spacingTop=10;tabWidth=40;tabHeight=14;tabPosition=left;html=1;whiteSpace=wrap;fillColor=#d5e8d4;strokeColor=#82b366;" vertex="1" parent="1">
          <mxGeometry x="40" y="140" width="140" height="90" as="geometry" />
        </mxCell>
        <mxCell id="C4nNwsREx9SmPKyc8qz5-84" style="edgeStyle=orthogonalEdgeStyle;rounded=0;orthogonalLoop=1;jettySize=auto;html=1;entryX=0.25;entryY=1;entryDx=0;entryDy=0;exitX=0.519;exitY=0.175;exitDx=0;exitDy=0;exitPerimeter=0;" edge="1" parent="1" source="C4nNwsREx9SmPKyc8qz5-64" target="C4nNwsREx9SmPKyc8qz5-2">
          <mxGeometry relative="1" as="geometry">
            <Array as="points">
              <mxPoint x="390" y="156" />
              <mxPoint x="390" y="120" />
              <mxPoint x="295" y="120" />
            </Array>
          </mxGeometry>
        </mxCell>
        <mxCell id="C4nNwsREx9SmPKyc8qz5-64" value="__init__.py&lt;br&gt;classes.py&lt;br&gt;handler.py&lt;br&gt;main.py" style="shape=folder;fontStyle=1;spacingTop=10;tabWidth=40;tabHeight=14;tabPosition=left;html=1;whiteSpace=wrap;fillColor=#d5e8d4;strokeColor=#82b366;" vertex="1" parent="1">
          <mxGeometry x="320" y="140" width="140" height="90" as="geometry" />
        </mxCell>
        <mxCell id="C4nNwsREx9SmPKyc8qz5-65" value="Classname" style="swimlane;fontStyle=0;childLayout=stackLayout;horizontal=1;startSize=26;fillColor=none;horizontalStack=0;resizeParent=1;resizeParentMax=0;resizeLast=0;collapsible=1;marginBottom=0;whiteSpace=wrap;html=1;" vertex="1" parent="1">
          <mxGeometry x="-440" y="240" width="140" height="104" as="geometry" />
        </mxCell>
        <mxCell id="C4nNwsREx9SmPKyc8qz5-66" value="+ field: type" style="text;strokeColor=none;fillColor=none;align=left;verticalAlign=top;spacingLeft=4;spacingRight=4;overflow=hidden;rotatable=0;points=[[0,0.5],[1,0.5]];portConstraint=eastwest;whiteSpace=wrap;html=1;" vertex="1" parent="C4nNwsREx9SmPKyc8qz5-65">
          <mxGeometry y="26" width="140" height="26" as="geometry" />
        </mxCell>
        <mxCell id="C4nNwsREx9SmPKyc8qz5-67" value="+ field: type" style="text;strokeColor=none;fillColor=none;align=left;verticalAlign=top;spacingLeft=4;spacingRight=4;overflow=hidden;rotatable=0;points=[[0,0.5],[1,0.5]];portConstraint=eastwest;whiteSpace=wrap;html=1;" vertex="1" parent="C4nNwsREx9SmPKyc8qz5-65">
          <mxGeometry y="52" width="140" height="26" as="geometry" />
        </mxCell>
        <mxCell id="C4nNwsREx9SmPKyc8qz5-68" value="+ field: type" style="text;strokeColor=none;fillColor=none;align=left;verticalAlign=top;spacingLeft=4;spacingRight=4;overflow=hidden;rotatable=0;points=[[0,0.5],[1,0.5]];portConstraint=eastwest;whiteSpace=wrap;html=1;" vertex="1" parent="C4nNwsREx9SmPKyc8qz5-65">
          <mxGeometry y="78" width="140" height="26" as="geometry" />
        </mxCell>
        <mxCell id="C4nNwsREx9SmPKyc8qz5-81" value="" style="edgeStyle=orthogonalEdgeStyle;rounded=0;orthogonalLoop=1;jettySize=auto;html=1;" edge="1" parent="1" source="C4nNwsREx9SmPKyc8qz5-77" target="C4nNwsREx9SmPKyc8qz5-2">
          <mxGeometry relative="1" as="geometry" />
        </mxCell>
        <mxCell id="C4nNwsREx9SmPKyc8qz5-77" value="" style="ellipse;html=1;shape=startState;fillColor=#000000;strokeColor=#ff0000;" vertex="1" parent="1">
          <mxGeometry x="325" y="-110" width="30" height="30" as="geometry" />
        </mxCell>
      </root>
    </mxGraphModel>
  </diagram>
</mxfile>
